<svg xmlns="http://www.w3.org/2000/svg" xmlns:xlink="http://www.w3.org/1999/xlink" width="225.047" height="54.914" viewBox="0 0 225.047 54.914">
  <defs>
    <clipPath id="clip-path">
      <rect id="Rectangle_4" data-name="Rectangle 4" width="225.047" height="54.914" fill="#12356c"/>
    </clipPath>
  </defs>
  <g id="Group_3" data-name="Group 3" transform="translate(0 0)">
    <path id="Path_1" data-name="Path 1" d="M.01.248V31.437H8.386V7.235H19.909V.248Z" transform="translate(-0.001 -0.017)" fill="#12356c"/>
    <path id="Path_2" data-name="Path 2" d="M24.61.248V31.437H45.527V24.59H32.985V18.851h11.2V12.095h-11.2V7.049H44.878V.248Z" transform="translate(-1.694 -0.017)" fill="#12356c"/>
    <g id="Group_2" data-name="Group 2" transform="translate(0 0)">
      <g id="Group_1" data-name="Group 1" clip-path="url(#clip-path)">
        <path id="Path_3" data-name="Path 3" d="M52.042.248h8.284V13.483h.092c.648-1.156,1.343-2.313,2.037-3.425l5.97-9.81H78.7l-9.9,13.282L79.067,31.438H69.4L62.825,18.805,60.326,22v9.441H52.042Z" transform="translate(-3.583 -0.017)" fill="#12356c"/>
        <path id="Path_4" data-name="Path 4" d="M98.02,7.235H90.06V.248h24.434V7.235h-8.1v24.2H98.02Z" transform="translate(-6.2 -0.017)" fill="#12356c"/>
        <path id="Path_5" data-name="Path 5" d="M140,18.851H128.8v5.738h12.541v6.849H120.424V.248h20.27v6.8H128.8v5.045H140Z" transform="translate(-8.29 -0.017)" fill="#12356c"/>
        <path id="Path_6" data-name="Path 6" d="M147.857.647A65.656,65.656,0,0,1,158.178,0c4.488,0,7.682.786,9.856,2.452A9.337,9.337,0,0,1,171.6,10a10.2,10.2,0,0,1-3.009,7.682c-2.546,2.267-6.2,3.24-10.411,3.24-.833,0-1.528-.047-2.037-.093v10.6h-8.284Zm8.284,13.79a17.529,17.529,0,0,0,1.9.093c3.286,0,5.323-1.666,5.323-4.35,0-2.315-1.576-3.888-4.721-3.888a12.837,12.837,0,0,0-2.5.185Z" transform="translate(-10.179 0)" fill="#12356c"/>
        <path id="Path_7" data-name="Path 7" d="M177.775,31.438V.248h9.857l4.95,9.58a91.4,91.4,0,0,1,4.907,10.921h.138a117.643,117.643,0,0,1-.647-13.141V.248h7.635v31.19h-8.791l-5.276-10.366a115.682,115.682,0,0,1-5.276-11.291h-.139c.184,4.211.277,8.931.277,13.976v7.681Z" transform="translate(-12.238 -0.017)" fill="#12356c"/>
        <path id="Path_8" data-name="Path 8" d="M220.441,24.219l-1.759,7.219h-8.655L219.1.248h11.107l9.3,31.19h-9.024l-1.99-7.219Zm6.894-6.2-1.435-5.6c-.462-1.758-1.064-4.3-1.526-6.154h-.092c-.464,1.85-.926,4.442-1.389,6.2l-1.343,5.553Z" transform="translate(-14.458 -0.017)" fill="#12356c"/>
        <path id="Path_9" data-name="Path 9" d="M4.691,58.2C1.816,58.2,0,56,0,53.007c0-3.134,1.967-5.344,4.842-5.344,2.981,0,4.737,2.255,4.737,5.161,0,3.419-2.074,5.371-4.874,5.371ZM4.8,56.713c1.8,0,2.814-1.681,2.814-3.814,0-1.92-.953-3.752-2.814-3.752s-2.845,1.786-2.83,3.814C1.952,54.987,3,56.713,4.782,56.713Z" transform="translate(0 -3.281)" fill="#12356c"/>
        <path id="Path_10" data-name="Path 10" d="M27.6,53.882c-.061-1.317-.136-2.906-.121-4.3h-.046c-.332,1.254-.756,2.633-1.211,3.919l-1.482,4.417H23.306l-1.362-4.358c-.393-1.3-.757-2.693-1.029-3.979h-.03c-.046,1.346-.106,2.966-.182,4.357l-.227,4.1H18.737l.68-10.2h2.452l1.332,4.1c.363,1.195.681,2.406.938,3.541h.046c.273-1.106.62-2.36,1.014-3.558l1.408-4.084h2.42l.59,10.2H27.8Z" transform="translate(-1.29 -3.294)" fill="#12356c"/>
        <rect id="Rectangle_1" data-name="Rectangle 1" width="1.861" height="10.199" transform="translate(36.739 44.549)" fill="#12356c"/>
        <path id="Path_11" data-name="Path 11" d="M56.882,58.042,54.854,51.52c-.2-.711-.363-1.408-.53-2.073h-.03c-.152.68-.3,1.376-.485,2.073l-1.937,6.522H49.936l3.269-10.2H55.55l3.36,10.2Z" transform="translate(-3.438 -3.294)" fill="#12356c"/>
        <path id="Path_12" data-name="Path 12" d="M71.772,58.2c-2.875,0-4.691-2.194-4.691-5.188,0-3.134,1.967-5.344,4.842-5.344,2.981,0,4.737,2.255,4.737,5.161,0,3.419-2.074,5.371-4.874,5.371Zm.105-1.482c1.8,0,2.814-1.681,2.814-3.814,0-1.92-.953-3.752-2.814-3.752s-2.845,1.786-2.83,3.814c-.015,2.025,1.029,3.752,2.814,3.752Z" transform="translate(-4.618 -3.281)" fill="#12356c"/>
        <path id="Path_13" data-name="Path 13" d="M87.785,56.515h5.3v1.528H85.395V56.967l3.267-3.979-3.086-3.919V47.843h7.067v1.528H87.952v.062l2.725,3.479-2.891,3.541Z" transform="translate(-5.879 -3.294)" fill="#12356c"/>
        <path id="Path_14" data-name="Path 14" d="M118.367,53.517h-3.844v3h4.3v1.527h-6.159v-10.2h5.932v1.528h-4.071V52h3.844Z" transform="translate(-7.756 -3.294)" fill="#12356c"/>
        <path id="Path_15" data-name="Path 15" d="M130.08,49.4h-2.9V47.843h7.7V49.4h-2.935v8.64H130.08Z" transform="translate(-8.755 -3.294)" fill="#12356c"/>
        <path id="Path_16" data-name="Path 16" d="M144.534,55.153l-.876,2.889h-1.923L145,47.843h2.375l3.316,10.2h-2l-.922-2.889Zm2.921-1.408-.8-2.511c-.2-.62-.364-1.317-.515-1.908h-.029c-.153.591-.3,1.3-.486,1.908l-.786,2.511Z" transform="translate(-9.757 -3.294)" fill="#12356c"/>
        <rect id="Rectangle_2" data-name="Rectangle 2" width="1.862" height="10.199" transform="translate(148.879 44.549)" fill="#12356c"/>
        <path id="Path_17" data-name="Path 17" d="M171.179,47.973a16.144,16.144,0,0,1,2.846-.212,4.611,4.611,0,0,1,3.01.832,2.887,2.887,0,0,1,1,2.255,3.1,3.1,0,0,1-.878,2.316,4.505,4.505,0,0,1-3.223,1.089,5.4,5.4,0,0,1-.908-.061v3.843h-1.847Zm1.847,4.751a3.692,3.692,0,0,0,.908.076c1.391,0,2.239-.68,2.239-1.877,0-1.134-.786-1.74-2.074-1.74a5.1,5.1,0,0,0-1.073.091Z" transform="translate(-11.784 -3.288)" fill="#12356c"/>
        <path id="Path_18" data-name="Path 18" d="M192.972,53.517h-3.843v3h4.3v1.527h-6.16v-10.2H193.2v1.528h-4.07V52h3.843Z" transform="translate(-12.892 -3.294)" fill="#12356c"/>
        <rect id="Rectangle_3" data-name="Rectangle 3" width="1.862" height="10.199" transform="translate(188.69 44.549)" fill="#12356c"/>
        <path id="Path_19" data-name="Path 19" d="M221.214,56.591h2.118V58.03H219.14v-1.12a5.089,5.089,0,0,0,2.074-4.192c0-1.784-1.013-3.57-2.861-3.57-1.83,0-2.936,1.695-2.936,3.586a5.119,5.119,0,0,0,2.09,4.176v1.12h-4.224V56.591h2.089v-.046a5.22,5.22,0,0,1-1.892-4.024,4.741,4.741,0,0,1,4.918-4.858,4.552,4.552,0,0,1,4.737,4.707,5.444,5.444,0,0,1-1.922,4.175Z" transform="translate(-14.683 -3.281)" fill="#12356c"/>
        <path id="Path_20" data-name="Path 20" d="M232.751,58.042v-10.2h2.118l2.634,4.374a28.277,28.277,0,0,1,1.74,3.419h.031c-.122-1.362-.168-2.679-.168-4.238V47.843h1.726v10.2h-1.923l-2.664-4.494a33.785,33.785,0,0,1-1.83-3.512l-.046.017c.075,1.317.091,2.662.091,4.343v3.646Z" transform="translate(-16.023 -3.294)" fill="#12356c"/>
      </g>
    </g>
  </g>
</svg>
